# xmcd
#
# Track frame offsets:
#        150
#        32929
#        59855
#        72359
#        128990
#        160976
#        183860
#        196585
#        210729
#
# Disc length: 2912 seconds
#
# Revision: 3
# Processed by: cddbd v1.5.1PL0 Copyright (c) Steve Scherf et al.
# Submitted via: ExactAudioCopy v0.95a5
#
DISCID=860b5e09
DTITLE=Bobby Hutcherson - Now!
DYEAR=1969
DGENRE=Jazz
TTITLE0=Slow Change
TTITLE1=Hello To The Wind
TTITLE2=Now
TTITLE3=The Creators
TTITLE4=Black Heroes
TTITLE5=Slow Change
TTITLE6=Now
TTITLE7=Hello To The Wind
TTITLE8=Now (reprise)
EXTD=
EXTT0=
EXTT1=
EXTT2=
EXTT3=
EXTT4=
EXTT5=
EXTT6=
EXTT7=
EXTT8=
PLAYORDER=
